# xmcd
#
# Track frame offsets: 
#        150
#        20967
#        37032
#        51855
#        71160
#        93219
#        108987
#        124377
#        145788
#        160233
#        177216
#        199221
#        218202
#        231999
#        256245
#
# Disc length: 3679 seconds
#
# Revision: 0
# Processed by: cddbd v1.5.2PL0 Copyright (c) Steve Scherf et al.
# Submitted via: ExactAudioCopy v0.99pb4
#
DISCID=e10e5d0f
DTITLE=Blues Etílicos - Blues Etílicos Ao Vivo
DYEAR=1900
DGENRE=blues
TTITLE0=Louco Da Cidade
TTITLE1=Cerveja
TTITLE2=Luz De Maluco
TTITLE3=Na Pele
TTITLE4=Misty Mountain
TTITLE5=Dente De Ouro
TTITLE6=Miss Coke
TTITLE7=Pelicano
TTITLE8=Canceriano Sem Lar (Clínica Tobias Blues)
TTITLE9=Camelo
TTITLE10=Vou Pegá Ma Beibe
TTITLE11=It's My Soul
TTITLE12=Terceiro Uisque
TTITLE13=Águas Barrentas
TTITLE14=O Sol Também Me Levanta
EXTD=
EXTT0=
EXTT1=
EXTT2=
EXTT3=
EXTT4=
EXTT5=
EXTT6=
EXTT7=
EXTT8=
EXTT9=
EXTT10=
EXTT11=
EXTT12=
EXTT13=
EXTT14=
PLAYORDER=
